<?xml version="1.0" encoding="utf-8"?>
<!-- Generator: Adobe Illustrator 26.2.0, SVG Export Plug-In . SVG Version: 6.00 Build 0)  -->
<svg version="1.1" id="Calque_1" xmlns="http://www.w3.org/2000/svg" xmlns:xlink="http://www.w3.org/1999/xlink" x="0px" y="0px"
	 viewBox="0 0 514.6 144.7" style="enable-background:new 0 0 514.6 144.7;" xml:space="preserve">
<style type="text/css">
	.st0{fill:#182540;}
</style>
<g id="ARTF">
	<polygon class="st0" points="60.8,29.5 20.6,113.5 31.9,113.5 60.9,51.4 89.9,113.5 101.1,113.5 60.9,29.5 	"/>
	<polygon class="st0" points="332.9,29.5 292.7,113.5 304,113.5 332.9,51.4 361.9,113.5 373.2,113.5 333,29.5 	"/>
	<g>
		<path class="st0" d="M153.5,55.8c0-7.7-4-15.3-11.1-19.3c-6.7-3.6-14.8-3.7-22.2-3.7h-12.7v80.7H118V79.4h4.4l24.8,34.1h12.7
			l-26.6-35.1C145.5,77,153.5,67.4,153.5,55.8 M121.3,71H118V41.8h2.8c10.4,0,22.9,1.8,22.9,14.4C143.7,69.1,132.1,71,121.3,71"/>
	</g>
	<rect x="206" y="104.3" class="st0" width="40.6" height="9.2"/>
	<polygon class="st0" points="246.7,42 246.7,32.8 158.1,32.8 158.1,42 178.1,42 178.1,113.5 188.6,113.5 188.6,42 	"/>
	<polygon class="st0" points="299.3,64.7 270,64.7 270,42 300.3,42 300.3,32.8 259.5,32.8 259.5,113.5 270,113.5 270,73.9 
		299.3,73.9 	"/>
	<g>
		<path class="st0" d="M368.9,73.6c0,23.3,19.9,41.6,43.9,41.6c7.4,0,15.7-2,22.1-5.7V97.7c-6.3,5.4-14.2,8.3-22.5,8.3
			c-18.8,0-33.1-15.1-33.1-32.7c0-17.9,14.4-33,33.3-33c7.9,0,16.2,2.8,22.2,7.9V36.6c-6.4-3.7-13.9-5.5-21.2-5.5
			C388.9,31.1,368.9,49.7,368.9,73.6"/>
	</g>
	<polygon class="st0" points="439.7,32.8 439.7,42 459.7,42 459.7,113.5 470.2,113.5 470.2,42 490.2,42 490.2,32.8 	"/>
	<rect x="206" y="65.1" class="st0" width="29.1" height="9.2"/>
</g>
</svg>
